<svg xmlns="http://www.w3.org/2000/svg" viewBox="0 0 150 142.7">
  <!-- SVG created with Arrow, by QuiverAI (https://quiver.ai) — ícone branco reduzido para respirar na moldura -->
  <style type="text/css">
    .cls-0 { fill: #374c7f; }
    .cls-1 { fill: #ffffff; }
  </style>
  <rect class="cls-0" width="150" height="142.7"/>
  <g transform="translate(75 71.35) scale(0.58) translate(-75 -71.35)">
    <path
      class="cls-1"
      d="m80.6 38.8c-0.1 0.2-0.3 0.6 0.1 0.7 1.8 0.9 3.6 1.7 5 2.8 1.9 1.4 3.6 3.1 5.2 4.8 4.5-0.2 14.7 3.2 14.8 10.9 0.1 6.3-8.2 9.6-16.6 11-2.1 0.3-3.9 0.7-6.6 0.7-8 0.1-23-0.3-32.5-3.9-4.1-1.4-9.9-4.2-10-7.8-0.1-1.9 0.7-2.6 0.8-3.3 0.1-1-0.4-2.1-1.4-2.7l-2.8-2c-1.5-1.2-3.7-0.9-4.5 1.1-0.6 1.6-1.1 3.3-1.2 4.9-1.8 19.9-3 38.9 2.7 56.5 5.6 15.8 17 28.7 41.9 28.7 21 0 38.8-8.3 43.4-35.7 0.3-1.9 2.2-2.9 3.9-2.1 2.4 1.2 5 2.1 9.6 2 11.3-0.2 16.6-10.6 16.4-25.4-0.4-15-6.1-25.3-27.7-25.9-1.4-0.1-2.8 1.1-2.8 2.5v4c0 1.4 1.1 2.7 2.5 2.7 14 0.3 18.5 4.7 19.1 12.1 0.9 8-0.5 18.3-5.5 19.9-1.2 0.4-7.2 1.3-10.3-2.5-2.9-3.3-3.6-10.6-3.9-14.9-0.2-1.3-1.4-2.4-2.7-2.3l-4 0.3c-1.3 0.1-2.6 1.4-2.6 2.6 0.6 17.6 0.3 37.7-13 47.1-5.5 4.1-12.5 6.8-22.5 6.8-9.7 0-16.6-2-21.5-5.9-10.7-8-15.8-23.1-15.3-46.5l0.1-5.3c0.2-1.9 2.1-3.2 3.9-2.2 7.3 3.2 17 6 36.8 6.3 16.2 0 35.8-4.4 35.9-19.8 0-8.6-6.9-17.3-27.6-19.9l-7.1-0.5v0.2zm-19.2-17.7c-1.3-0.1-2.2 3.5 0.3 5.8 1.4 1.3 4 2.7 7.4 2.1 4.3-0.7 8.1-3.3 8.1-11.1 0-9.8-9.4-16.6-18.3-16.6-9 0-21.1 6.6-21.1 19.8 0 10.2 6.1 16.7 13.6 18.9 5.1 1.7 9.8 2 15 3.6 6.7 1.9 17.7 7.6 20.2 22 0.2 0.9 2.3-0.7 2.3-1.2-2-12.7-6.8-21-14.8-25-5.9-3.2-8.2-2.8-15-5-3.9-1.3-6.8-3.3-9.1-5.9-1.4-1.6-2.7-4.6-2.6-7.2 0-4.7 3.7-10.8 11.4-10.9 4.1 0 10.1 2.6 10.2 8.1 0 2.6-2.9 6.4-6.6 3.1-0.4-0.3-0.5-0.5-1-0.5zm-44.6-3c-7.8 0.2-15.2 6.6-15.2 15s5.5 13.1 10.4 13.1c6.3 0.4 10.1-5.7 10-9.1-0.2-0.5-0.7-1.1-1.2-0.9-5.9 3.2-8.2 3.7-10.4-0.3-1.8-3.7 1-7 4.2-8 7.3-1.7 10.5 2 13.8 6.7 6.6 9.8 13.2 16.6 28.1 16.3l4.1-0.1c1-0.2 0.9-1.7-0.1-1.7-9-0.6-20.4-4.4-26.4-18.5-3-8.1-10-12.5-17.3-12.5z"
    />
  </g>
</svg>
